<svg id="Layer_35" enable-background="new 0 0 64 64" height="512" viewBox="0 0 64 64" width="512" xmlns="http://www.w3.org/2000/svg"><path d="m51.162 51.326 2.098 6.295 2.263-3.771 3.062.765-2.099-7.698c-1.552 1.701-3.34 3.19-5.324 4.409z"/><path d="m33.513 46.918-2.099 7.698 3.062-.765 2.263 3.771 2.098-6.295c-1.983-1.22-3.771-2.709-5.324-4.409z"/><path d="m19 9c-5.514 0-10 4.486-10 10s4.486 10 10 10c3.151 0 6.113-1.503 8-4.021v-6.979h1.949c-.503-5.046-4.773-9-9.949-9zm0 16c-3.309 0-6-2.691-6-6s2.691-6 6-6 6 2.691 6 6-2.691 6-6 6z"/><path d="m58.171 20c-4.683 0-9.224-1.314-13.172-3.808-3.967 2.499-8.497 3.808-13.17 3.808h-2.829v10.28c0 9.894 6.564 18.765 16 21.676 9.436-2.911 16-11.782 16-21.676v-10.28zm.829 10.28c0 8.677-5.489 16.495-13.659 19.453l-.341.123-.341-.123c-8.17-2.958-13.659-10.776-13.659-19.453v-8.275l.994-.006c4.369-.026 8.702-1.137 12.53-3.211l.477-.259.477.259c3.83 2.074 8.162 3.185 12.528 3.211l.994.006z"/><path d="m41 34.414-1.586 1.586 3.586 3.586 9.586-9.586-1.586-1.586-8 8z"/><path d="m27 27.932c-2.18 1.949-5.02 3.068-8 3.068-6.617 0-12-5.383-12-12s5.383-12 12-12c6.28 0 11.438 4.85 11.949 11h.88c1.068 0 2.126-.08 3.171-.227v-.982l-2.273-.535-.146-.596c-.336-1.376-.881-2.688-1.617-3.903l-.318-.523 1.229-1.986-3.123-3.123-1.986 1.229-.523-.318c-1.215-.736-2.527-1.281-3.903-1.617l-.596-.146-.536-2.273h-4.416l-.535 2.273-.596.146c-1.376.336-2.688.881-3.903 1.617l-.523.318-1.987-1.229-3.123 3.123 1.229 1.986-.318.523c-.736 1.215-1.281 2.527-1.617 3.903l-.146.596-2.273.536v4.416l2.273.535.146.596c.336 1.376.881 2.688 1.617 3.903l.318.523-1.229 1.986 3.123 3.123 1.986-1.229.523.318c1.215.736 2.527 1.281 3.903 1.617l.596.146.536 2.274h4.416l.535-2.273.596-.146c1.376-.336 2.688-.881 3.903-1.617l.523-.318.256.159c-.003-.176-.021-.349-.021-.525z"/><path d="m33 23.976v6.305c0 7.717 4.807 14.682 12 17.445 7.193-2.764 12-9.729 12-17.445v-6.305c-4.176-.171-8.294-1.261-11.999-3.177-3.704 1.916-7.823 3.006-12.001 3.177zm9.602.076.701 1.873c-.667.25-1.345.479-2.014.681l-.578-1.914c.628-.19 1.264-.405 1.891-.64zm-7.602 6.228v-4.43l.87-.114c.963-.127 1.94-.304 2.904-.527l.451 1.949c-.738.17-1.483.315-2.226.435v2.688c0 .234.006.467.018.699l-1.998.102c-.013-.267-.019-.534-.019-.802zm20.414-.28-12.414 12.414-6.414-6.414 4.414-4.414 2 2 8-8z"/><circle cx="19" cy="19" r="4"/></svg>